<svg width="32" height="32" viewBox="0 0 32 32" fill="none" xmlns="http://www.w3.org/2000/svg">
<rect width="32" height="32" fill="#121212"/>
<path d="M18.926 28.396C18.194 28.396 17.438 28.33 16.658 28.198C15.89 28.078 15.17 27.832 14.498 27.46C13.838 27.076 13.304 26.518 12.896 25.786C12.488 25.054 12.284 24.088 12.284 22.888C12.284 22.624 12.284 22.354 12.284 22.078C12.284 21.802 12.284 21.526 12.284 21.25V13.204H7.87402V8.88398H9.11602C9.83602 8.88398 10.406 8.85398 10.826 8.79398C11.258 8.73398 11.576 8.58399 11.78 8.34399C11.996 8.09199 12.134 7.70198 12.194 7.17398C12.254 6.64598 12.284 5.91998 12.284 4.99598V2.58398H17.882V8.88398H23.444V13.204H17.882V20.08C17.882 20.296 17.882 20.506 17.882 20.71C17.882 20.914 17.882 21.112 17.882 21.304C17.882 22.132 17.978 22.804 18.17 23.32C18.374 23.836 18.872 24.094 19.664 24.094C20.06 24.094 20.432 24.058 20.78 23.986C21.14 23.914 21.41 23.842 21.59 23.77V27.964C21.338 28.072 20.984 28.168 20.528 28.252C20.072 28.348 19.538 28.396 18.926 28.396Z" fill="#FFF9F9"/>
</svg>
